<?xml version="1.0" standalone="no"?>
<!DOCTYPE svg PUBLIC "-//W3C//DTD SVG 20010904//EN"
 "http://www.w3.org/TR/2001/REC-SVG-20010904/DTD/svg10.dtd">
<svg version="1.0" xmlns="http://www.w3.org/2000/svg"
 width="104.000000pt" height="104.000000pt" viewBox="0 0 104.000000 104.000000"
 preserveAspectRatio="xMidYMid meet">
<metadata>
Created by potrace 1.14, written by Peter Selinger 2001-2017
</metadata>
<g transform="translate(0.000000,104.000000) scale(0.100000,-0.100000)"
fill="#000000" stroke="none">
<path d="M131 797 c-13 -6 -34 -25 -45 -40 -20 -27 -21 -42 -22 -233 -2 -194
-1 -206 20 -236 38 -58 39 -58 436 -58 392 0 395 1 434 53 20 27 21 41 21 237
0 196 -1 210 -21 237 -11 15 -32 34 -45 40 -34 18 -744 18 -778 0z m751 -85
c17 -20 18 -358 1 -382 -11 -15 -42 -17 -362 -18 -306 -1 -351 1 -363 15 -19
24 -19 362 0 385 13 16 45 17 363 16 291 -1 351 -4 361 -16z"/>
<path d="M340 642 c-21 -7 -30 -23 -30 -56 0 -23 -4 -27 -19 -23 -25 6 -61
-19 -61 -42 0 -26 20 -41 55 -41 29 0 31 -2 27 -28 -4 -28 15 -54 44 -58 19
-3 37 22 39 54 1 22 6 28 30 30 38 5 55 19 52 43 -5 27 -20 40 -53 42 -22 2
-29 8 -30 25 -1 12 -2 26 -3 32 -2 14 -34 28 -51 22z"/>
<path d="M610 580 c-23 -44 29 -80 64 -44 19 18 19 20 6 45 -14 25 -56 25 -70
-1z"/>
<path d="M740 506 c-6 -8 -10 -25 -8 -38 2 -18 10 -24 35 -26 28 -3 33 1 39
23 11 45 -37 75 -66 41z"/>
</g>
</svg>
